# xmcd
#
# Track frame offsets: 
#        150
#        20646
#        40214
#        53588
#        71968
#        89400
#        99558
#        116334
#        138426
#        157372
#
# Disc length: 2315 seconds
#
# Revision: 0
# Processed by: cddbd v1.5.2PL0 Copyright (c) Steve Scherf et al.
# Submitted via: ExactAudioCopy v1.0b3
#
DISCID=8c09090a
DTITLE=The Pheasantry - The Pheasantry
DYEAR=2016
DGENRE=Bluegrass
TTITLE0=01 Bigger Love.
TTITLE1=02 Beehive
TTITLE2=03 Deer Country
TTITLE3=04 Forty Cars
TTITLE4=05 Let Me In
TTITLE5=06 Black Ice
TTITLE6=07 True North
TTITLE7=08 Lily
TTITLE8=09 Bad News Blues
TTITLE9=10 Simon
EXTD=
EXTT0=
EXTT1=
EXTT2=
EXTT3=
EXTT4=
EXTT5=
EXTT6=
EXTT7=
EXTT8=
EXTT9=
PLAYORDER=
